    <svg width="64" height="64" viewBox="0 0 64 64" fill="none" xmlns="http://www.w3.org/2000/svg">
    <path d="M56.6454 34.7969C55.6881 22.1122 46.7644 13.3594 31.8963 13.3594C17.0283 13.3594 8.08502 22.6544 7.20584 35.344C6.69298 42.7389 9.44288 49.3279 14.9769 53.084C18.6206 55.5604 23.7101 56.9329 31.9598 56.9329C40.3512 56.9329 45.1623 55.1208 48.806 52.6688C54.8773 48.5904 57.1974 42.0844 56.6454 34.7969Z" fill="#FFC022"/>
    <path d="M26.8752 21.321C23.251 11.943 15.3383 5.56399 12.2953 4.61153C11.1475 4.25009 9.70663 4.2159 9.05701 5.27092C7.41586 7.93291 5.31558 16.4806 9.96062 28.6084L26.8752 21.321Z" fill="#FFC022"/>
    <path d="M18.2787 17.223C19.0309 16.5929 19.3972 15.9775 18.5718 14.7026C17.2921 12.7245 14.9915 10.4142 14.0977 9.70592C12.6324 8.54344 11.4992 8.15269 11.0645 10.0234C10.2586 13.4815 10.3221 18.1754 11.1866 20.7641C11.4894 21.6775 12.4272 22.1611 13.1501 21.531L18.2787 17.223Z" fill="#FFD1D1"/>
    <path d="M27.0705 22.503C27.6225 22.9719 28.741 22.9035 29.3906 22.1513C30.177 21.2379 30.9976 18.1608 30.4847 13.4034C28.2037 13.4864 26.0448 13.8137 24.0325 14.3656C25.659 17.0325 26.0497 21.6336 27.0705 22.503Z" fill="#FF9B31"/>
    <path d="M36.7221 22.503C36.1702 22.9719 35.0516 22.9035 34.402 22.1513C33.6156 21.2379 32.7951 18.1608 33.3079 13.4034C35.5889 13.4864 37.7478 13.8137 39.7602 14.3656C38.1337 17.0325 37.7429 21.6336 36.7221 22.503Z" fill="#FF9B31"/>
    <path d="M39.6625 14.7857C43.609 8.72417 49.1284 4.65061 51.4192 3.92284C52.5523 3.56139 53.8711 3.62001 54.5158 4.67991C56.1375 7.3419 57.51 15.5428 54.3107 27.0259L42.6224 21.3893L39.6625 14.7857Z" fill="#FFC022"/>
    <path d="M48.2834 19.1865C49.4703 20.3734 50.4374 21.1696 51.1358 21.9266C51.5999 22.4297 52.4497 22.2002 52.5865 21.5261C53.7832 15.7626 53.4022 10.8489 52.5865 9.55941C52.1958 8.94398 51.468 8.78279 50.8037 9.00747C49.6119 9.40311 46.5738 11.6695 44.4296 14.9762C44.1805 15.362 44.2733 15.8798 44.6543 16.1387C45.426 16.6613 46.7741 17.6723 48.2834 19.1865Z" fill="#FFD1D1"/>
    <path d="M27.8276 38.4895C27.8032 36.9851 29.9621 36.2671 31.9989 36.2329C34.0405 36.1988 36.2385 36.863 36.2629 38.3674C36.2873 39.8718 33.7133 41.85 32.0917 41.85C30.4749 41.85 27.8569 39.989 27.8276 38.4895Z" fill="black"/>
    <path d="M3.90894 35.2072C4.075 35.4075 6.06294 35.3782 10.9229 37.6836" stroke="#9E9E9E" stroke-miterlimit="10" stroke-linecap="round"/>
    <path d="M2.05286 40.9855C2.05286 40.9855 5.18862 39.8914 10.581 40.8487" stroke="#9E9E9E" stroke-miterlimit="10" stroke-linecap="round"/>
    <path d="M4.93958 45.5914C4.93958 45.5914 6.27789 44.9174 11.1281 44.4924" stroke="#9E9E9E" stroke-miterlimit="10" stroke-linecap="round"/>
    <path d="M59.6738 33.4879C59.6738 33.4879 58.0082 33.6491 52.865 36.5846" stroke="#9E9E9E" stroke-miterlimit="10" stroke-linecap="round"/>
    <path d="M60.4308 38.851C60.4308 38.851 57.9447 38.6751 52.5914 39.8132" stroke="#9E9E9E" stroke-miterlimit="10" stroke-linecap="round"/>
    <path d="M59.4686 44.0089C59.4686 44.0089 57.1095 43.1736 52.2495 42.9099" stroke="#9E9E9E" stroke-miterlimit="10" stroke-linecap="round"/>
    <path d="M47.5703 32.9311C47.4042 35.6224 45.7338 37.1024 43.8337 37.1024C41.9337 37.1024 40.3951 35.2072 40.3951 32.8725C40.3951 30.5378 41.9972 28.6182 44.1317 28.7354C46.6081 28.8771 47.707 30.7332 47.5703 32.9311Z" fill="#000200"/>
    <path d="M23.1044 32.6576C23.4854 35.3977 22.3327 37.0682 20.4229 37.4541C18.5131 37.8399 16.8768 36.5553 16.4031 34.2108C15.9244 31.8615 16.8427 29.6586 19.0113 29.3411C21.5268 28.9748 22.7918 30.4157 23.1044 32.6576Z" fill="#000200"/>
    <path d="M22.6112 42.1088C21.3559 42.9245 22.8407 44.8148 23.7102 45.4546C24.5796 46.0945 26.1426 46.8809 28.4333 46.6464C31.1393 46.3729 31.9159 44.3556 31.9159 44.3556C31.9159 44.3556 32.8781 46.6025 36.2239 46.6953C39.6185 46.7881 40.6687 44.9515 41.1278 44.4045C41.587 43.8526 42.0461 42.4312 41.2646 41.8842C40.4831 41.3322 39.936 42.0209 39.1106 43.1687C38.2851 44.3166 36.5902 44.9564 34.9393 44.1749C33.2884 43.3934 33.1956 40.7363 33.1956 40.7363L30.856 40.8731C30.856 40.8731 30.4897 43.1639 29.4346 43.8965C28.3796 44.6292 25.8593 44.8148 24.8043 43.2078C24.3402 42.4947 23.6662 41.4201 22.6112 42.1088Z" fill="black"/>
    </svg>
