<svg width="58" height="51" viewBox="0 0 58 51" fill="none" xmlns="http://www.w3.org/2000/svg">
<g clip-path="url(#clip0_78_10)">
<path fill-rule="evenodd" clip-rule="evenodd" d="M18.017 2.74768C10.1952 4.77854 11.41 15.9715 9.79332 22.3608C9.28401 24.3824 7.74207 29.2787 5.19086 29.1767C2.38733 29.0562 2.72843 20.6916 2.60227 18.5124C2.51816 17.0425 2.29388 14.2698 0.518311 13.7876C3.85918 2.04754 9.63912 -1.81017 18.017 2.74768Z" fill="#A0470D"/>
<path d="M48.3512 16.9963C48.8745 20.9838 49.3792 24.8323 51.1127 27.0022C51.1562 27.0592 51.1877 27.1243 51.2054 27.1936C51.223 27.2629 51.2265 27.335 51.2155 27.4056C50.7378 30.3989 49.6227 33.2567 47.9447 35.7887C46.4652 37.9251 44.5078 39.6929 42.2255 40.954C41.8198 41.5504 41.37 42.1161 40.8798 42.6464L40.8284 42.6232C40.2864 45.7019 38.9594 47.7514 36.9268 49.0218C34.8943 50.2923 32.3384 50.7327 29.2358 50.6678C21.9186 50.5055 19.1478 47.705 18.1619 45.4469C17.941 44.9491 17.784 44.4257 17.6946 43.889C17.6393 43.5207 17.6283 43.1471 17.6619 42.7762V42.702C17.3915 42.4701 17.14 42.2174 16.9096 41.9462C16.6539 41.6487 16.4401 41.318 16.2742 40.9633C14.009 39.6921 12.0683 37.9218 10.6017 35.7887C8.92382 33.2617 7.80873 30.4084 7.33091 27.4195C7.30507 27.2977 7.32501 27.1707 7.38698 27.0625C9.44757 23.5665 9.93352 19.4723 10.3868 15.6378C11.0923 9.70282 11.7325 4.32892 17.8068 2.28414C17.9173 2.2467 18.0373 2.2467 18.1479 2.28414C18.4951 2.38986 18.8496 2.47044 19.2085 2.52525C19.5645 2.57705 19.9235 2.60647 20.2832 2.61335C21.203 2.6247 22.117 2.46751 22.9793 2.14968C24.2409 1.75093 25.7501 1.27335 29.2966 1.30117C31.4518 1.27363 33.5989 1.56907 35.6652 2.1775C36.568 2.48277 37.515 2.6394 38.4688 2.64117C38.7822 2.63394 39.0946 2.60294 39.4033 2.54843C39.7206 2.49198 40.033 2.41138 40.3378 2.30733C40.4411 2.27465 40.5522 2.27465 40.6555 2.30733C46.6878 3.89307 47.5709 10.6533 48.412 17.0241L48.3512 16.9963ZM40.8331 42.498V42.6232L40.8705 42.6557C40.8705 42.6 40.8378 42.4053 40.8378 42.5397L40.8331 42.498Z" fill="#EDC797"/>
<path fill-rule="evenodd" clip-rule="evenodd" d="M50.7155 27.3222C46.099 21.5402 49.8838 5.24233 40.4639 2.7478C39.8212 2.97471 39.1461 3.09836 38.4641 3.1141C35.8101 3.21147 34.8569 1.84365 29.2919 1.82047C23.3484 1.76019 23.2783 3.16046 20.2879 3.1141C19.517 3.102 18.752 2.97861 18.017 2.7478C8.29343 5.99347 13.0921 18.3873 7.82617 27.3222C9.02702 33.9387 12.1903 38.1071 16.704 40.597C17.0522 41.3602 17.5929 42.0214 18.274 42.5165C18.0077 42.5165 17.3114 49.8842 29.2405 50.1439C35.254 50.2737 39.2911 48.3727 40.3237 42.5165C40.3237 42.5165 41.6648 41.0421 41.8423 40.5923C46.3513 38.1024 49.5146 33.9341 50.7202 27.3175L50.7155 27.3222Z" fill="#F7D7B1"/>
<path fill-rule="evenodd" clip-rule="evenodd" d="M40.4359 2.74778C48.2578 4.77865 47.0429 15.9716 48.6596 22.3609C49.1689 24.3639 50.7108 29.2603 53.2527 29.1536C56.0562 29.0377 55.7245 20.6732 55.8506 18.4893C55.9348 17.0195 56.159 14.2467 57.9346 13.7645C54.5891 2.04765 48.8138 -1.81007 40.4359 2.74778Z" fill="#A0470D"/>
<path fill-rule="evenodd" clip-rule="evenodd" d="M19.5636 18.3687C20.4163 18.3724 21.233 18.7102 21.836 19.3085C22.439 19.9068 22.7793 20.7173 22.783 21.5634V23.3671C22.7793 24.2132 22.439 25.0237 21.836 25.622C21.233 26.2203 20.4163 26.5581 19.5636 26.5617C18.7105 26.5593 17.8931 26.2219 17.2899 25.6233C16.6867 25.0248 16.3467 24.2136 16.3442 23.3671V21.5634C16.3467 20.7169 16.6867 19.9057 17.2899 19.3071C17.8931 18.7086 18.7105 18.3712 19.5636 18.3687Z" fill="#39474A"/>
<path fill-rule="evenodd" clip-rule="evenodd" d="M19.5075 19.2404C19.7848 19.2404 20.0558 19.322 20.2863 19.4749C20.5168 19.6277 20.6965 19.845 20.8026 20.0991C20.9087 20.3533 20.9365 20.633 20.8824 20.9028C20.8283 21.1726 20.6948 21.4205 20.4987 21.615C20.3027 21.8096 20.0529 21.9421 19.781 21.9957C19.5091 22.0494 19.2272 22.0219 18.9711 21.9166C18.715 21.8113 18.496 21.633 18.342 21.4042C18.188 21.1755 18.1058 20.9066 18.1058 20.6314C18.1058 20.2625 18.2535 19.9087 18.5163 19.6479C18.7792 19.387 19.1358 19.2404 19.5075 19.2404Z" fill="white"/>
<path fill-rule="evenodd" clip-rule="evenodd" d="M38.9173 18.3687C38.0638 18.3712 37.2459 18.7084 36.6419 19.3069C36.0379 19.9053 35.6969 20.7165 35.6932 21.5634V23.1955C35.6957 24.0433 36.0362 24.8556 36.6403 25.4551C37.2444 26.0545 38.063 26.3924 38.9173 26.3948C39.7704 26.3924 40.5878 26.055 41.191 25.4564C41.7942 24.8578 42.1342 24.0467 42.1367 23.2002V21.5634C42.1342 20.7169 41.7942 19.9057 41.191 19.3071C40.5878 18.7086 39.7704 18.3712 38.9173 18.3687Z" fill="#39474A"/>
<path fill-rule="evenodd" clip-rule="evenodd" d="M38.9734 19.2404C38.6961 19.2404 38.4251 19.322 38.1946 19.4749C37.9641 19.6277 37.7844 19.845 37.6783 20.0991C37.5722 20.3533 37.5444 20.633 37.5985 20.9028C37.6526 21.1726 37.7861 21.4205 37.9822 21.615C38.1782 21.8096 38.428 21.9421 38.6999 21.9957C38.9718 22.0494 39.2537 22.0219 39.5098 21.9166C39.7659 21.8113 39.9849 21.633 40.1389 21.4042C40.2929 21.1755 40.3751 20.9066 40.3751 20.6314C40.3751 20.2625 40.2274 19.9087 39.9646 19.6479C39.7017 19.387 39.3451 19.2404 38.9734 19.2404Z" fill="white"/>
<path fill-rule="evenodd" clip-rule="evenodd" d="M29.2218 44.2738C34.2074 46.7081 38.1463 45.7993 40.7723 40.7082C41.59 39.1271 41.4732 38.4687 40.6929 36.8922C40.4686 36.4286 40.2256 36.0113 40.006 35.5754C38.5268 32.8068 36.9 30.1184 35.1325 27.5215C34.198 26.1723 33.3383 24.7395 31.8618 23.9467C31.0508 23.5443 30.1565 23.3348 29.2498 23.3348C28.3431 23.3348 27.4488 23.5443 26.6378 23.9467C25.138 24.7256 24.2642 26.1723 23.3437 27.5215C21.5651 30.1177 19.9274 32.8061 18.4375 35.5754C18.2039 36.0113 17.9703 36.4471 17.7507 36.8922C16.9703 38.4687 16.8535 39.1271 17.6712 40.7082C20.2972 45.8086 24.2128 46.7081 29.2218 44.2738Z" fill="#BF9E83"/>
<path fill-rule="evenodd" clip-rule="evenodd" d="M33.4832 36.5955C32.3245 37.844 30.8691 38.7845 29.2498 39.3311C27.685 38.7536 26.2682 37.84 25.1006 36.6558C24.3857 35.8861 24.0867 35.594 24.1941 34.5415C24.2552 33.7749 24.6056 33.0595 25.1754 32.5384C26.965 30.9109 31.3058 30.8785 33.1608 32.441C33.7247 32.9129 34.0967 33.572 34.2074 34.2957C34.4037 35.3992 34.2074 35.7841 33.4832 36.614V36.5955Z" fill="#3F3D31"/>
</g>
<defs>
<clipPath id="clip0_78_10">
<rect width="57.4163" height="49.7608" fill="white" transform="translate(0.518311 0.893127)"/>
</clipPath>
</defs>
</svg>
